<svg width="78" height="72" viewBox="0 0 78 72" fill="none" xmlns="http://www.w3.org/2000/svg">
<path d="M40.2869 25.7634C38.4536 18.2634 31.6869 6.36344 19.2869 18.7634C16.1202 18.2634 9.18691 19.4634 6.78691 28.2634C3.78691 29.4301 -1.31309 34.0634 2.28691 43.2634M16.2869 29.7634C17.7869 28.0968 21.7869 25.7634 25.7869 29.7634" stroke="#00DCEA" stroke-width="2" stroke-linecap="round"/>
<path d="M28.7869 37.2634C30.1999 36.9606 32.4686 37.0979 34.0385 38.7634M35.7869 44.2634C35.7869 41.5813 35.0609 39.8482 34.0385 38.7634M43.7869 38.7634C42.6213 36.7634 39.0397 33.9634 34.0385 38.7634" stroke="#00DCEA" stroke-width="2" stroke-linecap="round"/>
<path d="M52.7869 45.2634C57.1203 45.2634 65.4869 42.8634 64.2869 33.2634C63.7869 30.0967 60.9869 23.9634 53.7869 24.7634C52.2869 20.4301 46.9869 12.9634 37.7869 17.7634" stroke="#00DCEA" stroke-width="2" stroke-linecap="round"/>
<path d="M38.7869 52.2634C38.1463 54.36 36.9278 56.8594 35.1186 58.7634M11.2869 39.7634C10.2869 37.7634 -2.21307 40.2634 1.78693 52.2634C4.98693 61.8634 14.4536 59.2634 18.7869 56.7634C26.3337 63.7897 31.75 62.3085 35.1186 58.7634M35.1186 58.7634C36.008 60.0968 38.6869 62.5634 42.2869 61.7634L46.7869 67.7634C47.6203 69.5968 50.1869 72.4634 53.7869 69.2634C54.6203 68.5968 56.1869 66.8634 55.7869 65.2634C55.3869 63.6634 52.9536 60.2634 51.7869 58.7634C53.6203 58.5968 57.5869 57.8634 58.7869 56.2634C60.2869 54.2634 63.2869 46.7634 60.7869 43.7634" stroke="#00DCEA" stroke-width="2" stroke-linecap="round"/>
<path d="M1.5 48.8817V44.8817V36.3817L2.5 31.8817L6.5 27.8817L9 24.3817L11.5 20.3817L20 17.8817L24.5 14.3817L28.5 13.3817L35 15.8817L37 18.3817L38 17.3817L42 16.3817L48.5 17.8817L54 24.3817L60 26.3817L64 30.8817V38.8817L61 42.8817L61.5 45.8817L61 52.8817L57.5 57.3817L51.5 58.8817L56 65.8817L53 69.8817L52 70.3817H50.5L48.5 69.8817L43.5 63.3817L42.5 62.3817L40 61.3817L38 60.8817L36 59.8817L35 59.3817L33 60.3817L30 61.3817L26 60.8817L23 59.3817L21 58.3817L18.5 55.8817L15.5 58.3817L11 59.3817L6.5 58.3817L4 55.8817L1.5 52.3817V48.8817Z" fill="#00DCEA"/>
<path d="M52 13.3817C50.1666 5.88173 43.4 -6.01827 31 6.38172C27.8333 5.88172 20.9 7.08171 18.5 15.8817C15.5 17.0484 10.4 21.6817 14 30.8817M28 17.3817C29.5 15.715 33.5 13.3817 37.5 17.3817" stroke="black" stroke-width="2" stroke-linecap="round"/>
<path d="M40.5 24.8817C41.913 24.5789 44.1817 24.7162 45.7515 26.3817M47.5 31.8817C47.5 29.1996 46.774 27.4665 45.7515 26.3817M55.5 26.3817C54.3344 24.3817 50.7527 21.5817 45.7515 26.3817" stroke="black" stroke-width="2" stroke-linecap="round"/>
<path d="M64.5 32.8817C68.8333 32.8817 77.2 30.4817 76 20.8817C75.5 17.715 72.7 11.5817 65.5 12.3817C64 8.04837 58.7 0.581698 49.5 5.3817" stroke="black" stroke-width="2" stroke-linecap="round"/>
<path d="M50.5 39.8817C49.8594 41.9782 48.6409 44.4777 46.8317 46.3817M23 27.3817C22 25.3817 9.50001 27.8817 13.5 39.8817C16.7 49.4817 26.1667 46.8817 30.5 44.3817C38.0467 51.408 43.4631 49.9268 46.8317 46.3817M46.8317 46.3817C47.7211 47.715 50.4 50.1817 54 49.3817L58.5 55.3817C59.3333 57.215 61.9 60.0817 65.5 56.8817C66.3333 56.215 67.9 54.4817 67.5 52.8817C67.1 51.2817 64.6667 47.8817 63.5 46.3817C65.3333 46.215 69.3 45.4817 70.5 43.8817C72 41.8817 75 34.3817 72.5 31.3817" stroke="black" stroke-width="2" stroke-linecap="round"/>
</svg>
