<svg width="200" height="200" viewBox="0 0 200 200" fill="none" xmlns="http://www.w3.org/2000/svg">
<path d="M152.078 167.094C155.383 170.43 157.237 174.936 157.237 179.632C157.237 184.327 155.383 188.833 152.078 192.169C150.448 193.814 148.509 195.12 146.371 196.012C144.233 196.903 141.94 197.362 139.625 197.362C137.309 197.362 135.016 196.903 132.878 196.012C130.741 195.12 128.801 193.814 127.171 192.169L47.925 112.385C44.6218 109.048 42.7689 104.543 42.7689 99.8475C42.7689 95.1523 44.6218 90.6468 47.925 87.31L127.175 7.51C130.496 4.32629 134.935 2.57539 139.536 2.63488C144.136 2.69437 148.528 4.55948 151.766 7.828C155.016 11.1093 156.865 15.5241 156.924 20.1422C156.983 24.7602 155.247 29.2208 152.082 32.584L85.275 99.842L152.078 167.094Z" fill="black"/>
</svg>
