<?xml version="1.0" encoding="UTF-8" standalone="no"?><!-- Generator: Gravit.io --><svg xmlns="http://www.w3.org/2000/svg" xmlns:xlink="http://www.w3.org/1999/xlink" style="isolation:isolate" viewBox="0 0 200 200" width="200pt" height="200pt"><defs><clipPath id="_clipPath_ZMQGbtgnQ3Nb54744sqC8sEVP4QPU4gI"><rect width="200" height="200"/></clipPath></defs><g clip-path="url(#_clipPath_ZMQGbtgnQ3Nb54744sqC8sEVP4QPU4gI)"><path d=" M 180.692 17.513 C 177.536 17.623 174.641 19.293 172.966 21.97 L 83.585 158.711 L 25.677 108.685 C 23.19 106.101 19.455 105.144 16.032 106.215 C 12.603 107.27 10.062 110.168 9.464 113.706 C 8.866 117.243 10.313 120.815 13.205 122.939 L 79.428 180.249 C 81.51 182.009 84.246 182.793 86.945 182.401 C 89.645 181.999 92.043 180.459 93.535 178.173 L 189.002 32.361 C 191.047 29.384 191.225 25.504 189.46 22.352 C 187.695 19.201 184.294 17.325 180.687 17.513 L 180.692 17.513 Z " fill="rgb(255,255,255)"/></g></svg>