<?xml version="1.0" encoding="UTF-8" standalone="no"?><!-- Generator: Gravit.io --><svg xmlns="http://www.w3.org/2000/svg" xmlns:xlink="http://www.w3.org/1999/xlink" style="isolation:isolate" viewBox="0 0 200 200" width="200pt" height="200pt"><defs><clipPath id="_clipPath_LI0Iof2FsvU7ms3lELxTk1zTvQW9LyXe"><rect width="200" height="200"/></clipPath></defs><g clip-path="url(#_clipPath_LI0Iof2FsvU7ms3lELxTk1zTvQW9LyXe)"><path d=" M 99.98 18.002 C 93.126 18.002 86.272 21.259 82.371 27.759 L 8.173 151.768 C 0.284 164.896 10.382 182 25.719 182 L 174.204 182 C 189.591 182 199.702 164.896 191.851 151.768 L 117.589 27.759 C 113.862 21.618 107.164 17.907 99.98 18.002 Z  M 99.98 30.423 C 102.593 30.423 105.206 31.71 106.797 34.273 L 180.995 158.231 C 184.1 163.406 180.654 169.377 174.178 169.377 L 25.744 169.377 C 19.319 169.377 15.873 163.406 18.978 158.231 L 93.189 34.273 C 94.624 31.885 97.207 30.423 99.993 30.423 L 99.98 30.423 Z  M 93.568 68.393 L 93.568 131.508 L 106.191 131.508 L 106.191 68.393 L 93.568 68.393 Z  M 93.568 144.131 L 93.568 156.754 L 106.191 156.754 L 106.191 144.131 L 93.568 144.131 Z " fill="rgb(255,255,255)"/></g></svg>