<svg width="28" height="24" viewBox="0 0 28 24" fill="none" xmlns="http://www.w3.org/2000/svg">
<mask id="path-1-inside-1_255:3" fill="white">
<path fill-rule="evenodd" clip-rule="evenodd" d="M11 0.14209C9.34315 0.14209 8 1.48524 8 3.14209V11.1421C8 12.7989 9.34315 14.1421 11 14.1421H20.3094L22.0643 17.1817L23.8193 14.1421H25C26.6569 14.1421 28 12.7989 28 11.1421V3.14209C28 1.48524 26.6569 0.14209 25 0.14209H11Z"/>
</mask>
<path d="M20.3094 14.1421L21.1754 13.6421L20.8868 13.1421H20.3094V14.1421ZM22.0643 17.1817L21.1983 17.6817L22.0643 19.1817L22.9304 17.6817L22.0643 17.1817ZM23.8193 14.1421V13.1421H23.2419L22.9532 13.6421L23.8193 14.1421ZM9 3.14209C9 2.03752 9.89543 1.14209 11 1.14209V-0.85791C8.79086 -0.85791 7 0.932951 7 3.14209H9ZM9 11.1421V3.14209H7V11.1421H9ZM11 13.1421C9.89543 13.1421 9 12.2467 9 11.1421H7C7 13.3512 8.79086 15.1421 11 15.1421V13.1421ZM20.3094 13.1421H11V15.1421H20.3094V13.1421ZM22.9304 16.6817L21.1754 13.6421L19.4434 14.6421L21.1983 17.6817L22.9304 16.6817ZM22.9532 13.6421L21.1983 16.6817L22.9304 17.6817L24.6853 14.6421L22.9532 13.6421ZM25 13.1421H23.8193V15.1421H25V13.1421ZM27 11.1421C27 12.2467 26.1046 13.1421 25 13.1421V15.1421C27.2091 15.1421 29 13.3512 29 11.1421H27ZM27 3.14209V11.1421H29V3.14209H27ZM25 1.14209C26.1046 1.14209 27 2.03752 27 3.14209H29C29 0.932951 27.2091 -0.85791 25 -0.85791V1.14209ZM11 1.14209H25V-0.85791H11V1.14209Z" fill="black" mask="url(#path-1-inside-1_255:3)"/>
<line x1="11.5" y1="3.64209" x2="24.5" y2="3.64209" stroke="black" stroke-linecap="round"/>
<line x1="11.5" y1="9.64209" x2="24.5" y2="9.64209" stroke="black" stroke-linecap="round"/>
<line x1="11.5" y1="6.64209" x2="24.5" y2="6.64209" stroke="black" stroke-linecap="round"/>
<mask id="path-6-inside-2_255:3" fill="white">
<path fill-rule="evenodd" clip-rule="evenodd" d="M12 11.1421C13.6569 11.1421 15 12.4852 15 14.1421V18.6421C15 20.2989 13.6569 21.6421 12 21.6421H5.76795L4.45175 23.9218L3.13556 21.6421H3C1.34315 21.6421 0 20.2989 0 18.6421V14.1421C0 12.4852 1.34315 11.1421 3 11.1421H12Z"/>
</mask>
<path d="M5.76795 21.6421L4.90192 21.1421L5.19059 20.6421H5.76795V21.6421ZM4.45175 23.9218L5.31778 24.4218L4.45175 25.9218L3.58573 24.4218L4.45175 23.9218ZM3.13556 21.6421V20.6421H3.71291L4.00158 21.1421L3.13556 21.6421ZM14 14.1421C14 13.0375 13.1046 12.1421 12 12.1421V10.1421C14.2091 10.1421 16 11.933 16 14.1421H14ZM14 18.6421V14.1421H16V18.6421H14ZM12 20.6421C13.1046 20.6421 14 19.7467 14 18.6421H16C16 20.8512 14.2091 22.6421 12 22.6421V20.6421ZM5.76795 20.6421H12V22.6421H5.76795V20.6421ZM3.58572 23.4218L4.90192 21.1421L6.63397 22.1421L5.31778 24.4218L3.58572 23.4218ZM4.00158 21.1421L5.31778 23.4218L3.58573 24.4218L2.26953 22.1421L4.00158 21.1421ZM3 20.6421H3.13556V22.6421H3V20.6421ZM1 18.6421C1 19.7467 1.89543 20.6421 3 20.6421V22.6421C0.79086 22.6421 -1 20.8512 -1 18.6421H1ZM1 14.1421V18.6421H-1V14.1421H1ZM3 12.1421C1.89543 12.1421 1 13.0375 1 14.1421H-1C-1 11.933 0.79086 10.1421 3 10.1421V12.1421ZM12 12.1421H3V10.1421H12V12.1421Z" fill="black" mask="url(#path-6-inside-2_255:3)"/>
<line x1="0.5" y1="-0.5" x2="10" y2="-0.5" transform="matrix(-1 0 0 1 12.75 18.6421)" stroke="black" stroke-linecap="round"/>
<line x1="0.5" y1="-0.5" x2="10" y2="-0.5" transform="matrix(-1 0 0 1 12.75 16.3921)" stroke="black" stroke-linecap="round"/>
</svg>
