<svg width="71" height="67" viewBox="0 0 71 67" fill="none" xmlns="http://www.w3.org/2000/svg">
<path d="M35.5564 66.0208C54.6872 66.0208 70.1958 55.9065 70.1958 43.4299C70.1958 30.9533 54.6872 20.839 35.5564 20.839C16.4256 20.839 0.917023 30.9533 0.917023 43.4299C0.917023 55.9065 16.4256 66.0208 35.5564 66.0208Z" fill="white"/>
<path d="M18.7746 47.5177C21.0323 47.5177 22.8625 45.6875 22.8625 43.4299C22.8625 41.1722 21.0323 39.342 18.7746 39.342C16.5169 39.342 14.6867 41.1722 14.6867 43.4299C14.6867 45.6875 16.5169 47.5177 18.7746 47.5177Z" fill="#03BECF"/>
<path d="M52.7685 47.5177C55.0262 47.5177 56.8564 45.6875 56.8564 43.4299C56.8564 41.1722 55.0262 39.342 52.7685 39.342C50.5109 39.342 48.6807 41.1722 48.6807 43.4299C48.6807 45.6875 50.5109 47.5177 52.7685 47.5177Z" fill="#008FCC"/>
<path d="M35.5564 3.62684L39.214 26.0026H31.8988L35.5564 3.62684Z" fill="white"/>
<path d="M35.5564 7.06926C37.3388 7.06926 38.7837 5.62436 38.7837 3.84199C38.7837 2.05961 37.3388 0.614716 35.5564 0.614716C33.774 0.614716 32.3291 2.05961 32.3291 3.84199C32.3291 5.62436 33.774 7.06926 35.5564 7.06926Z" fill="white"/>
</svg>
